<svg width="100" height="99" viewBox="0 0 100 99" fill="none" xmlns="http://www.w3.org/2000/svg">
<path d="M49.9684 24.8164H49.8546C36.0841 24.8164 24.9209 35.8104 24.9209 49.3721V49.4842C24.9209 63.046 36.0841 74.0399 49.8546 74.0399H49.9684C63.7389 74.0399 74.9021 63.046 74.9021 49.4842V49.3721C74.9021 35.8104 63.7389 24.8164 49.9684 24.8164Z" fill="#6E5D4D"/>
<path d="M54.7814 56.6285C48.3847 56.6285 43.1805 51.5014 43.1787 45.2017C43.1805 43.6047 44.5008 42.3062 46.1188 42.3062C46.2851 42.3062 46.4497 42.3199 46.6073 42.3475C46.954 42.4044 47.2833 42.52 47.5862 42.6942C47.63 42.72 47.6597 42.7614 47.6667 42.8097L48.3427 47.0055C48.3514 47.0538 48.3357 47.1038 48.3024 47.14C47.9294 47.547 47.4531 47.8402 46.9225 47.9868L46.6669 48.0575L46.7632 48.3007C47.6352 50.4874 49.4108 52.2343 51.633 53.0966L51.8799 53.1932L51.9516 52.9414C52.1005 52.4189 52.3982 51.9498 52.8114 51.5825C52.8412 51.5549 52.8815 51.5411 52.9218 51.5411C52.9305 51.5411 52.9393 51.5411 52.9498 51.5428L57.2102 52.2085C57.2609 52.2171 57.303 52.2447 57.3292 52.2878C57.5044 52.5861 57.6217 52.9121 57.6812 53.2535C57.7092 53.4053 57.7215 53.5657 57.7215 53.733C57.7215 55.3282 56.4029 56.6267 54.7814 56.6285Z" fill="#FDFDFD"/>
<path d="M66.1256 48.0468C65.7806 44.208 63.9945 40.6468 61.0965 38.0204C58.1809 35.3784 54.3985 33.9229 50.4428 33.9229C41.761 33.9229 34.6971 40.8797 34.6971 49.4299C34.6971 52.2996 35.5008 55.095 37.0225 57.5301L33.6289 64.9284L44.4944 63.7884C46.3838 64.5507 48.3836 64.937 50.4411 64.937C50.9822 64.937 51.5373 64.9094 52.0941 64.8525C52.5844 64.8007 53.08 64.7249 53.5668 64.6283C60.8373 63.1814 66.1448 56.8265 66.1868 49.5127V49.4299C66.1868 48.9643 66.1658 48.4987 66.1238 48.0486L66.1256 48.0468ZM44.9129 60.5411L38.9014 61.1723L40.6963 57.2559L40.3373 56.7816C40.3111 56.7471 40.2848 56.7127 40.255 56.673C38.6966 54.5535 37.8735 52.0495 37.8735 49.4316C37.8735 42.6059 43.512 37.0529 50.4428 37.0529C56.9359 37.0529 62.4395 42.042 62.9701 48.4107C62.9981 48.7522 63.0139 49.0954 63.0139 49.4334C63.0139 49.5299 63.0121 49.6248 63.0104 49.7265C62.8773 55.4365 58.827 60.2859 53.1605 61.5207C52.728 61.6155 52.285 61.6879 51.8437 61.7345C51.3849 61.7862 50.9139 61.8121 50.4463 61.8121C48.7811 61.8121 47.1631 61.4948 45.6344 60.8671C45.4645 60.7998 45.2981 60.7274 45.1423 60.6532L44.9147 60.5446L44.9129 60.5411Z" fill="#FDFDFD"/>
<path d="M99.7166 49.44C99.7166 74.4094 81.0499 95.0521 56.8003 98.4019C54.5329 98.7136 52.2131 98.8765 49.8583 98.8765C47.1402 98.8765 44.4711 98.6617 41.8718 98.246C18.1322 94.4563 0 74.0456 0 49.44C0 22.1357 22.3246 0 49.8618 0C77.399 0 99.7236 22.1357 99.7236 49.44H99.7166Z" fill="#6E5D4D"/>
<path d="M56.8001 39.6996V50.4695H70.2368L68.1091 64.9773H56.8001V98.4026C54.5327 98.7144 52.2129 98.8772 49.8581 98.8772C47.14 98.8772 44.4709 98.6624 41.8716 98.2467V64.9773H29.4795V50.4695H41.8716V37.292C41.8716 29.1167 48.555 22.4863 56.8036 22.4863V22.4933C56.828 22.4933 56.849 22.4863 56.8734 22.4863H70.2403V35.0334H61.5061C58.9103 35.0334 56.8036 37.1223 56.8036 39.6961L56.8001 39.6996Z" fill="white"/>
</svg>
