<svg width="100" height="99" viewBox="0 0 100 99" fill="none" xmlns="http://www.w3.org/2000/svg">
<path d="M49.9754 0H49.7483C22.2731 0 0 22.0838 0 49.3256V49.5508C0 76.7926 22.2731 98.8765 49.7483 98.8765H49.9754C77.4506 98.8765 99.7236 76.7926 99.7236 49.5508V49.3256C99.7236 22.0838 77.4506 0 49.9754 0Z" fill="#6E5D4D"/>
<path d="M65.2929 20.1167H34.4357C25.9108 20.1167 18.9756 26.993 18.9756 35.4454V63.4356C18.9756 71.888 25.9108 78.7643 34.4357 78.7643H65.2929C73.8178 78.7643 80.753 71.888 80.753 63.4356V35.4454C80.753 26.993 73.8178 20.1167 65.2929 20.1167ZM24.4294 35.4454C24.4294 29.9756 28.919 25.5242 34.4357 25.5242H65.2929C70.8097 25.5242 75.2992 29.9756 75.2992 35.4454V63.4356C75.2992 68.9054 70.8097 73.3568 65.2929 73.3568H34.4357C28.919 73.3568 24.4294 68.9054 24.4294 63.4356V35.4454Z" fill="white"/>
<path d="M49.8629 63.6949C57.7904 63.6949 64.2434 57.3001 64.2434 49.4366C64.2434 41.573 57.7939 35.1782 49.8629 35.1782C41.932 35.1782 35.4824 41.573 35.4824 49.4366C35.4824 57.3001 41.932 63.6949 49.8629 63.6949ZM49.8629 40.5892C54.7857 40.5892 58.7896 44.5591 58.7896 49.44C58.7896 54.321 54.7857 58.2908 49.8629 58.2908C44.9402 58.2908 40.9363 54.321 40.9363 49.44C40.9363 44.5591 44.9402 40.5892 49.8629 40.5892Z" fill="white"/>
<path d="M65.5748 37.4823C67.7095 37.4823 69.4494 35.7606 69.4494 33.6406C69.4494 31.5205 67.713 29.7988 65.5748 29.7988C63.4366 29.7988 61.7002 31.5205 61.7002 33.6406C61.7002 35.7606 63.4366 37.4823 65.5748 37.4823Z" fill="white"/>
</svg>
