<svg width="100" height="99" viewBox="0 0 100 99" fill="none" xmlns="http://www.w3.org/2000/svg">
<path d="M49.9754 0H49.7483C22.2731 0 0 22.0838 0 49.3256V49.5508C0 76.7926 22.2731 98.8765 49.7483 98.8765H49.9754C77.4506 98.8765 99.7236 76.7926 99.7236 49.5508V49.3256C99.7236 22.0838 77.4506 0 49.9754 0Z" fill="#6E5D4D"/>
<path d="M59.5806 63.8999C46.8177 63.8999 36.4342 53.6011 36.4307 40.9466C36.4342 37.7389 39.0685 35.1304 42.2968 35.1304C42.6287 35.1304 42.9571 35.1581 43.2715 35.2135C43.9633 35.3278 44.6202 35.5599 45.2246 35.9098C45.3119 35.9618 45.3713 36.0449 45.3853 36.1419L46.7339 44.5701C46.7514 44.6671 46.7199 44.7676 46.6535 44.8403C45.9094 45.6579 44.959 46.2468 43.9004 46.5412L43.3903 46.6832L43.5825 47.1717C45.3224 51.5642 48.8651 55.0734 53.2988 56.8054L53.7914 56.9994L53.9346 56.4936C54.2316 55.444 54.8255 54.5018 55.6501 53.7639C55.7095 53.7085 55.7898 53.6808 55.8702 53.6808C55.8877 53.6808 55.9051 53.6808 55.9261 53.6842L64.4265 55.0214C64.5278 55.0387 64.6117 55.0941 64.6641 55.1807C65.0135 55.78 65.2476 56.4347 65.3664 57.1206C65.4223 57.4255 65.4467 57.7476 65.4467 58.0837C65.4467 61.288 62.8159 63.8965 59.5806 63.8999Z" fill="#FDFDFD"/>
<path d="M82.212 46.6622C81.5238 38.9511 77.9601 31.7976 72.1778 26.5218C66.3607 21.2147 58.814 18.291 50.9215 18.291C33.5992 18.291 19.5053 32.2653 19.5053 49.4404C19.5053 55.2047 21.1089 60.8201 24.145 65.7114L17.374 80.5725L39.0531 78.2827C42.8229 79.8139 46.8128 80.5898 50.918 80.5898C51.9976 80.5898 53.1052 80.5344 54.2162 80.4201C55.1945 80.3161 56.1832 80.1637 57.1545 79.9697C71.6608 77.0633 82.2505 64.298 82.3343 49.6067V49.4404C82.3343 48.5051 82.2924 47.5698 82.2085 46.6657L82.212 46.6622ZM39.8881 71.7597L27.8939 73.0276L31.475 65.1606L30.7588 64.208C30.7064 64.1387 30.654 64.0694 30.5946 63.9897C27.4851 59.7323 25.843 54.7024 25.843 49.4439C25.843 35.7329 37.0931 24.5784 50.9215 24.5784C63.8765 24.5784 74.8576 34.6001 75.9162 47.3931C75.9721 48.079 76.0035 48.7684 76.0035 49.4474C76.0035 49.6414 76 49.8319 75.9965 50.0362C75.731 61.506 67.6499 71.2471 56.3439 73.7274C55.4809 73.9179 54.597 74.0634 53.7166 74.1569C52.8012 74.2609 51.8614 74.3128 50.9285 74.3128C47.6059 74.3128 44.3776 73.6754 41.3276 72.4145C40.9887 72.2794 40.6567 72.1339 40.3458 71.9849L39.8916 71.7667L39.8881 71.7597Z" fill="#FDFDFD"/>
</svg>
